<svg width="1920" height="460" viewBox="0 0 1920 460" fill="none" xmlns="http://www.w3.org/2000/svg">
<rect width="1920" height="460" fill="#3B4355"/>
<line opacity="0.04" x1="207.5" y1="2.33961e-08" x2="207.5" y2="460" stroke="#F0EFED"/>
<line opacity="0.04" x1="70.5" y1="2.33961e-08" x2="70.5" y2="460" stroke="#F0EFED"/>
<line opacity="0.04" x1="344.5" y1="2.46976e-08" x2="344.5" y2="460" stroke="#F0EFED"/>
<line opacity="0.04" x1="480.5" y1="2.47766e-08" x2="480.5" y2="460" stroke="#F0EFED"/>
<line opacity="0.04" x1="617.5" y1="2.47437e-08" x2="617.5" y2="460" stroke="#F0EFED"/>
<line opacity="0.04" x1="754.5" y1="2.46781e-08" x2="754.5" y2="460" stroke="#F0EFED"/>
<line opacity="0.04" x1="891.5" y1="2.46781e-08" x2="891.5" y2="460" stroke="#F0EFED"/>
<line opacity="0.04" x1="1027.5" y1="2.46781e-08" x2="1027.5" y2="460" stroke="#F0EFED"/>
<line opacity="0.04" x1="1164.5" y1="2.46781e-08" x2="1164.5" y2="460" stroke="#F0EFED"/>
<line opacity="0.04" x1="1301.5" y1="2.47437e-08" x2="1301.5" y2="460" stroke="#F0EFED"/>
<line opacity="0.04" x1="1438.5" y1="2.47766e-08" x2="1438.5" y2="460" stroke="#F0EFED"/>
<line opacity="0.04" x1="1574.5" y1="2.47437e-08" x2="1574.5" y2="460" stroke="#F0EFED"/>
<line opacity="0.04" x1="1711.5" y1="2.47766e-08" x2="1711.5" y2="460" stroke="#F0EFED"/>
<line opacity="0.04" x1="1848.5" y1="2.47766e-08" x2="1848.5" y2="460" stroke="#F0EFED"/>
</svg>
