<svg width="78" height="11" viewBox="0 0 78 11" fill="none" xmlns="http://www.w3.org/2000/svg">
<path d="M2.33459 0.994999H0.18959V3.8C0.18959 6.02 1.35959 7.49 3.90959 7.49C4.67459 7.49 5.42459 7.355 6.06959 7.16V11H8.19959V0.994999H6.06959V5.285C5.54459 5.495 4.88459 5.615 4.16459 5.615C3.00959 5.615 2.33459 5.105 2.33459 3.8V0.994999ZM17.2658 11V9.125H12.3158V6.86H17.1608V4.985H12.3158V2.87H17.2658V0.994999H10.1858V11H17.2658ZM21.0609 11V7.445H23.6109C25.7709 7.445 26.9709 5.96 26.9709 4.22C26.9709 2.465 25.7859 0.994999 23.6109 0.994999H18.9309V11H21.0609ZM23.3259 5.57H21.0609V2.87H23.3259C24.1659 2.87 24.7959 3.38 24.7959 4.22C24.7959 5.045 24.1659 5.57 23.3259 5.57ZM35.3713 11V9.125H30.4213V6.86H35.2663V4.985H30.4213V2.87H35.3713V0.994999H28.2913V11H35.3713ZM46.0364 11V0.994999H37.0364V11H39.1664V2.87H43.8914V11H46.0364ZM57.3381 11L53.4831 0.994999H50.8131L46.9431 11H49.3731L50.0031 9.305H54.2931L54.9081 11H57.3381ZM53.7081 7.43H50.5881L52.1481 3.125L53.7081 7.43ZM67.337 11L63.707 5.855L67.112 0.994999H64.547L62.282 4.415L59.987 0.994999H57.452L60.857 5.87L57.227 11H59.762L62.282 7.34L64.787 11H67.337ZM77.6115 11L73.7565 0.994999H71.0865L67.2165 11H69.6465L70.2765 9.305H74.5665L75.1815 11H77.6115ZM73.9815 7.43H70.8615L72.4215 3.125L73.9815 7.43Z" fill="#1A76B6"/>
</svg>
