<svg width="68" height="15" viewBox="0 0 68 15" fill="none" xmlns="http://www.w3.org/2000/svg">
<path d="M14.8366 14V0.659999H10.8366L7.59664 8.72L4.35664 0.659999H0.376641V14H3.21664V4.66L6.97664 14H8.21664L11.9766 4.66V14H14.8366ZM25.766 14V7.76C25.766 4.98 23.746 4.1 21.546 4.1C20.026 4.1 18.506 4.58 17.326 5.62L18.286 7.32C19.106 6.56 20.066 6.18 21.106 6.18C22.386 6.18 23.226 6.82 23.226 7.8V9.1C22.586 8.34 21.446 7.92 20.166 7.92C18.626 7.92 16.806 8.78 16.806 11.04C16.806 13.2 18.626 14.24 20.166 14.24C21.426 14.24 22.566 13.78 23.226 13V14H25.766ZM21.186 12.52C20.186 12.52 19.366 12 19.366 11.1C19.366 10.16 20.186 9.64 21.186 9.64C22.006 9.64 22.806 9.92 23.226 10.48V11.68C22.806 12.24 22.006 12.52 21.186 12.52ZM35.7454 4.34H28.2854V14H30.8254V6.56H35.7454V4.34ZM39.9074 14V10.14H43.9074V14H46.4474V4.34H43.9074V7.92H39.9074V4.34H37.3674V14H39.9074ZM51.409 14L55.509 7.94V14H58.049V4.34H55.489L51.509 10.18V4.34H48.969V14H51.409ZM64.9105 14V6.56H67.6105V4.34H59.6505V6.56H62.3505V14H64.9105Z" fill="#BD0028"/>
</svg>
