<svg width="15" height="15" viewBox="0 0 15 15" fill="none" xmlns="http://www.w3.org/2000/svg">
<path fill-rule="evenodd" clip-rule="evenodd" d="M1.57586 0.268155C1.21401 -0.092631 0.631104 -0.0888811 0.273916 0.276533C-0.0832708 0.641942 -0.0794836 1.23064 0.282375 1.59143L6.20462 7.4961L0.274135 13.409C-0.0877235 13.7698 -0.0915105 14.3585 0.265676 14.7239C0.622863 15.0893 1.20576 15.0931 1.56762 14.7323L7.51497 8.80256L13.432 14.702C13.7938 15.0628 14.3768 15.0591 14.7339 14.6937C15.0911 14.3282 15.0873 13.7395 14.7255 13.3788L8.82531 7.4961L14.7222 1.61666C15.0841 1.25587 15.0879 0.667173 14.7307 0.301759C14.3735 -0.0636507 13.7906 -0.0674005 13.4287 0.293386L7.51496 6.18964L1.57586 0.268155Z" fill="#8D919A"/>
</svg>
