<svg width="20" height="18" viewBox="0 0 20 18" fill="none" xmlns="http://www.w3.org/2000/svg">
<path opacity="0.45" fill-rule="evenodd" clip-rule="evenodd" d="M0 2C0 3.10457 0.89543 4 2 4C3.10457 4 4 3.10457 4 2C4 0.895432 3.10457 0 2 0C0.89543 0 0 0.895432 0 2ZM6 1H20V3H6V1ZM20 8H6V10H20V8ZM6 17H20V15H6V17ZM0 16C0 17.1046 0.89543 18 2 18C3.10457 18 4 17.1046 4 16C4 14.8954 3.10457 14 2 14C0.89543 14 0 14.8954 0 16ZM2 11C0.89543 11 0 10.1046 0 9C0 7.89543 0.89543 7 2 7C3.10457 7 4 7.89543 4 9C4 10.1046 3.10457 11 2 11Z" fill="#311E19"/>
</svg>
