<svg width="25" height="25" viewBox="0 0 25 25" fill="none" xmlns="http://www.w3.org/2000/svg">
<path d="M19.5589 4.44838L15.9447 2.36161C14.9672 1.79723 13.7127 2.13336 13.1481 3.11096L11.0407 6.76097C11.0163 6.76722 10.9919 6.77315 10.9675 6.77968C7.81331 7.62485 5.93465 10.8788 6.77972 14.0332C6.78621 14.0574 6.7934 14.0815 6.80018 14.1056L4.69263 17.756C4.12854 18.7334 4.46466 19.9879 5.44205 20.5523L9.05638 22.639C9.5286 22.9115 10.0801 22.9836 10.6093 22.8418C11.1388 22.6999 11.5803 22.3618 11.8529 21.8897L12.2997 21.1158C12.2998 21.1156 12.2999 21.1155 12.3001 21.1151C12.3002 21.1149 12.3003 21.1147 12.3004 21.1146L13.9603 18.2394C13.9846 18.2333 14.009 18.2274 14.0332 18.2209C17.1877 17.3756 19.0664 14.1217 18.2212 10.9673C18.2146 10.943 18.2075 10.9191 18.2007 10.8949L20.3081 7.24472C20.5808 6.77261 20.6528 6.22103 20.5109 5.69175C20.3691 5.16234 20.031 4.72075 19.5589 4.44838ZM15.3881 3.32564L19.0023 5.41241C19.2169 5.53634 19.3707 5.7378 19.4356 5.97989C19.5004 6.22199 19.4679 6.47353 19.3441 6.68814L19.1753 6.98054L13.9434 3.95991L14.1121 3.66754C14.3698 3.22167 14.942 3.06819 15.3881 3.32564ZM10.3212 21.7664C10.0791 21.8313 9.82757 21.7988 9.61311 21.6749L5.99878 19.5882C5.5528 19.3307 5.39946 18.7585 5.65681 18.3125L5.82573 18.0199L11.0576 21.0406L10.8887 21.3331C10.7649 21.5478 10.5633 21.7016 10.3212 21.7664ZM11.6142 20.0765L6.38232 17.0559L7.33698 15.4022C8.39389 17.2821 10.4125 18.4474 12.569 18.4228L11.6142 20.0765ZM13.7451 17.1455C11.1838 17.8318 8.54154 16.3064 7.85508 13.7451C7.16886 11.1835 8.6944 8.54118 11.2556 7.8549C13.8172 7.16854 16.4595 8.69407 17.1458 11.2555C17.8322 13.817 16.3066 16.4592 13.7451 17.1455ZM12.432 6.57772L13.3868 4.92395L18.6187 7.94458L17.6639 9.59835C16.607 7.71853 14.5884 6.55294 12.432 6.57772Z" fill="#311E19"/>
<path d="M13.9713 9.95283C13.705 9.79921 13.3646 9.89042 13.211 10.1566L12.0183 12.2219C11.9445 12.3498 11.9246 12.5017 11.9628 12.6443C12.001 12.7869 12.0942 12.9086 12.222 12.9824L14.2874 14.1746C14.4206 14.2515 14.5723 14.267 14.7098 14.2301C14.8474 14.1932 14.971 14.1039 15.0478 13.9709C15.2015 13.7046 15.1103 13.3642 14.844 13.2104L13.2607 12.2965L14.175 10.7131C14.3286 10.447 14.2376 10.1066 13.9713 9.95283Z" fill="#311E19"/>
</svg>
