<svg width="17" height="18" viewBox="0 0 17 18" fill="none" xmlns="http://www.w3.org/2000/svg">
<path fill-rule="evenodd" clip-rule="evenodd" d="M1.78582 0.304026C1.37568 -0.104896 0.71501 -0.100646 0.310167 0.313519C-0.0946764 0.727683 -0.090383 1.39493 0.319755 1.80385L7.03217 8.49635L0.310428 15.1982C-0.0997099 15.6071 -0.104002 16.2743 0.30084 16.6885C0.705683 17.1027 1.36635 17.1069 1.77649 16.698L8.51735 9.97712L15.2238 16.6637C15.6339 17.0726 16.2946 17.0683 16.6994 16.6542C17.1043 16.24 17.1 15.5728 16.6899 15.1638L10.0025 8.49635L16.6862 1.8325C17.0963 1.42357 17.1006 0.75633 16.6958 0.342165C16.2909 -0.0719995 15.6303 -0.0762506 15.2201 0.332671L8.51735 7.01558L1.78582 0.304026Z" fill="#90604C"/>
</svg>
