<svg width="22" height="22" viewBox="0 0 22 22" fill="none" xmlns="http://www.w3.org/2000/svg">
<path d="M21.3888 6.94193L21.3888 6.94197C21.4365 8.02637 21.4404 8.3744 21.4404 11.1222C21.4404 13.8713 21.4286 14.2186 21.3809 15.3024V15.3025C21.3326 16.3976 21.1546 17.1547 20.8971 17.8212L20.8971 17.8213C20.3508 19.2339 19.2336 20.3509 17.8205 20.8972C17.1575 21.1549 16.3963 21.3326 15.3014 21.3809C14.2173 21.4286 13.8699 21.4404 11.1203 21.4404C8.37073 21.4404 8.02313 21.4286 6.93923 21.3809C5.84416 21.3326 5.08724 21.1549 4.42077 20.8975C3.72197 20.6344 3.08515 20.2194 2.55914 19.6856C2.0254 19.1599 1.61049 18.5273 1.34327 17.8207C1.08557 17.1578 0.907779 16.3969 0.859515 15.3025L0.859514 15.3024C0.811897 14.2186 0.8 13.8713 0.8 11.1222C0.8 8.37347 0.811892 8.02556 0.863547 6.93758C0.911845 5.84305 1.08954 5.08636 1.34704 4.42009C1.6103 3.72155 2.02508 3.08493 2.55886 2.55905C3.08534 2.0207 3.71834 1.60993 4.42453 1.34301C5.08735 1.08552 5.84842 0.907759 6.94309 0.859504L6.94313 0.859502C8.02714 0.811895 8.37457 0.8 11.1242 0.8C13.8734 0.8 14.2214 0.811889 15.3096 0.863534C16.4043 0.911819 17.1613 1.08947 17.8275 1.34691C17.8278 1.34702 17.8281 1.34713 17.8284 1.34724L17.7563 1.53379C18.4286 1.78678 19.0415 2.1862 19.5478 2.70021L21.3888 6.94193ZM21.3888 6.94193C21.3405 5.84748 21.1629 5.08652 20.9052 4.42363C20.6382 3.71773 20.2274 3.08485 19.6889 2.55848L21.3888 6.94193ZM19.1662 15.2057L19.1662 15.2058C19.1236 16.1718 18.9623 16.6841 18.8315 17.0202L18.8313 17.0207C18.5115 17.8498 17.8531 18.508 17.0239 18.8278L17.0234 18.828C16.6872 18.9587 16.171 19.12 15.2085 19.1624L15.2084 19.1624C14.145 19.2098 13.8282 19.2215 11.1282 19.2215C8.42813 19.2215 8.10732 19.2098 7.04781 19.1624L7.04765 19.1624C6.08146 19.12 5.56905 18.9587 5.23285 18.828L5.22969 18.8268C4.81808 18.6747 4.44435 18.434 4.14166 18.1203L4.14173 18.1202L4.13745 18.116C3.82241 17.8084 3.58177 17.4382 3.42991 17.0274L3.42993 17.0274L3.42871 17.0242C3.298 16.6882 3.13665 16.1719 3.09422 15.2098L3.09422 15.2097C3.04683 14.1465 3.0351 13.8296 3.0351 11.1301C3.0351 8.43055 3.04684 8.10981 3.09422 7.05066L3.09423 7.05049C3.13665 6.08451 3.29797 5.57221 3.42871 5.23608L3.42874 5.23609L3.42991 5.2329C3.582 4.82134 3.82256 4.44821 4.13976 4.14576L4.13985 4.14585L4.14486 4.14073C4.45234 3.82578 4.82262 3.5852 5.23363 3.43353L5.23364 3.43355L5.23686 3.4323C5.57298 3.30161 6.08942 3.14028 7.05173 3.09772L7.05176 3.09772C8.1152 3.05049 8.4322 3.0386 11.132 3.0386C13.8361 3.0386 14.1529 3.05049 15.2124 3.09771L15.2125 3.09772C16.1787 3.14028 16.6912 3.30158 17.0274 3.4323L17.0274 3.43233L17.0306 3.43352C17.4422 3.58545 17.8159 3.82615 18.1186 4.13988L18.1185 4.13994L18.1228 4.14411C18.4378 4.45171 18.6784 4.82195 18.8303 5.2329L18.8303 5.23291L18.8315 5.23608C18.9622 5.57212 19.1236 6.0883 19.1662 7.05056L19.1662 7.05059C19.2134 8.11382 19.2253 8.4306 19.2253 11.1301C19.2253 13.8295 19.2134 14.1425 19.1662 15.2057Z" fill="#A4A4A4" stroke="#A4A4A4" stroke-width="0.4"/>
<path d="M11.124 5.72285C8.14249 5.72285 5.72346 8.14119 5.72346 11.1223C5.72346 14.1035 8.14249 16.5218 11.124 16.5218C14.1056 16.5218 16.5245 14.1035 16.5245 11.1223C16.5245 8.14119 14.1056 5.72285 11.124 5.72285ZM11.124 14.2951C9.37178 14.2951 7.95053 12.8742 7.95053 11.1223C7.95053 9.37045 9.37178 7.94956 11.124 7.94956C12.8763 7.94956 14.2974 9.37045 14.2974 11.1223C14.2974 12.8742 12.8763 14.2951 11.124 14.2951Z" fill="#A4A4A4" stroke="#A4A4A4" stroke-width="0.4"/>
<path d="M16.5296 7.1311C17.3105 7.1311 17.9436 6.49806 17.9436 5.71726C17.9436 4.93629 17.3105 4.30342 16.5296 4.30342C15.7488 4.30342 15.1158 4.93631 15.1158 5.71726C15.1158 6.49804 15.7488 7.1311 16.5296 7.1311Z" fill="#A4A4A4" stroke="#A4A4A4" stroke-width="0.4"/>
</svg>
