<svg width="18" height="22" viewBox="0 0 18 22" fill="none" xmlns="http://www.w3.org/2000/svg">
<path d="M16.3706 18.7295L16.3707 18.7296L16.3737 18.7271C16.8384 18.3485 17.125 17.8302 17.125 17.2478V7.51706C17.125 6.93683 16.8403 6.39934 16.3725 6.03676C15.9082 5.65903 15.2854 5.43514 14.5978 5.43514H13.1581V2.22083C13.1581 1.86401 13.0121 1.52512 12.7433 1.28525C12.4759 1.02878 12.0922 0.875 11.6667 0.875H6.33333C5.90777 0.875 5.52409 1.02878 5.2567 1.28524C4.98787 1.52511 4.84194 1.86401 4.84194 2.22083V5.41719H3.4022C2.7165 5.41719 2.06974 5.64006 1.62507 6.02077C1.16113 6.39921 0.875 6.91714 0.875 7.4991V17.2478C0.875 17.828 1.15972 18.3655 1.6275 18.7281C1.95267 18.9926 2.3757 19.1892 2.85847 19.2753V19.5817C2.85847 20.0202 3.07868 20.4129 3.41141 20.684C3.74379 20.9548 4.21295 21.125 4.72452 21.125H4.79063C5.3022 21.125 5.77137 20.9548 6.10374 20.684C6.43647 20.4129 6.65668 20.0202 6.65668 19.5817V19.3297H11.3433V19.5817C11.3433 20.0202 11.5635 20.4129 11.8963 20.684C12.2286 20.9548 12.6978 21.125 13.2094 21.125H13.2755C13.7621 21.125 14.2322 20.9743 14.5666 20.7019L14.5886 20.684C14.9213 20.4129 15.1415 20.0202 15.1415 19.5817V19.2746C15.6061 19.1879 16.0279 18.9912 16.3706 18.7295ZM6.0817 1.94072L6.08219 1.94132L6.09194 1.93139C6.1511 1.87115 6.22591 1.84313 6.33333 1.84313H11.6667C11.7627 1.84313 11.8459 1.88173 11.9183 1.94072C11.9982 2.00584 12.0486 2.11333 12.0486 2.22083V5.41719H11.2848V3.36984C11.2848 3.11512 11.213 2.8712 11.0607 2.6834C10.882 2.43603 10.6022 2.29331 10.2782 2.29331H7.72176C7.3978 2.29331 7.11796 2.43603 6.93928 2.68339C6.78699 2.8712 6.71522 3.11511 6.71522 3.36984V5.43514H5.95145V2.22083C5.95145 2.11333 6.00176 2.00584 6.0817 1.94072ZM5.31312 20.0185L5.31297 20.0183L5.30673 20.0234C5.17369 20.1317 4.98091 20.2107 4.7686 20.2107H4.70248C4.48326 20.2107 4.29622 20.1458 4.17058 20.0288L4.17076 20.0286L4.16435 20.0234C4.03032 19.9142 3.94594 19.7674 3.94594 19.6176V19.3656H5.52514V19.6176C5.52514 19.7744 5.45672 19.9161 5.31312 20.0185ZM13.842 20.0185L13.8419 20.0183L13.8357 20.0234L13.8136 20.0413C13.6847 20.1464 13.4933 20.2107 13.2975 20.2107H13.2314C13.0122 20.2107 12.8251 20.1458 12.6995 20.0288L12.6997 20.0286L12.6933 20.0234C12.5592 19.9142 12.4749 19.7674 12.4749 19.6176V19.3656H14.0541V19.6176C14.0541 19.7744 13.9856 19.9161 13.842 20.0185ZM15.6246 18.0455L15.6245 18.0454L15.6208 18.0485C15.3563 18.264 15.0095 18.3974 14.6198 18.3974H11.9091H6.09091H3.38017C2.98776 18.3974 2.62169 18.2624 2.38299 18.0517L2.38305 18.0516L2.37922 18.0485C2.11417 17.8326 1.96247 17.5603 1.96247 17.2657V7.51706C1.96247 7.21984 2.11643 6.93199 2.3754 6.73725L2.37546 6.73732L2.37922 6.73426C2.64369 6.51881 2.99054 6.38532 3.38017 6.38532H5.38567H7.25895H10.697H12.5702H14.5758C15.0111 6.38532 15.3576 6.51985 15.6208 6.73426C15.8858 6.95018 16.0375 7.22244 16.0375 7.51706V17.2657C16.0375 17.5629 15.8836 17.8508 15.6246 18.0455ZM7.84676 3.36984C7.84676 3.31656 7.85304 3.27754 7.8652 3.24349H10.1378C10.1468 3.27134 10.1532 3.30837 10.1532 3.35189V5.41719H7.84676V3.36984Z" fill="#311E19" stroke="#311E19" stroke-width="0.25"/>
<path d="M9.15145 10.1888C8.89985 9.93708 8.49165 9.93708 8.23988 10.1887L6.77525 11.6533C6.52365 11.9049 6.52365 12.3129 6.77525 12.5647C6.90113 12.6906 7.06613 12.7535 7.23112 12.7535C7.39595 12.7535 7.56094 12.6906 7.68682 12.5647L9.15145 11.1003C9.40306 10.8485 9.40322 10.4405 9.15145 10.1888Z" fill="#311E19"/>
<path d="M9.70431 11.6533L8.23985 13.1179C7.98825 13.3695 7.98825 13.7777 8.23985 14.0293C8.3659 14.1552 8.53073 14.2182 8.69572 14.2182C8.86055 14.2182 9.02554 14.1552 9.15142 14.0293L10.6159 12.5647C10.8675 12.3129 10.8675 11.9049 10.6159 11.6533C10.3641 11.4015 9.95608 11.4015 9.70431 11.6533Z" fill="#311E19"/>
</svg>
