<svg width="26" height="24" viewBox="0 0 26 24" fill="none" xmlns="http://www.w3.org/2000/svg">
<mask id="path-1-outside-1_35_451" maskUnits="userSpaceOnUse" x="0" y="0.00466919" width="26" height="24" fill="black">
<rect fill="white" y="0.00466919" width="26" height="24"/>
<path d="M23.3089 9.82927C22.9535 9.58272 22.5235 9.49004 22.0979 9.5682C21.6724 9.6464 21.3034 9.88604 21.0589 10.2429L19.6301 12.3281V4.93534C19.6301 4.12912 18.9742 3.47329 18.168 3.47329C17.9532 3.47329 17.7493 3.52021 17.5654 3.60374V3.47419C17.5654 2.66796 16.9095 2.01213 16.1033 2.01213C15.2971 2.01213 14.6412 2.66801 14.6412 3.47419V3.60374C14.4573 3.52021 14.2534 3.47329 14.0386 3.47329C13.2324 3.47329 12.5766 4.12916 12.5766 4.93534V5.24738C12.3927 5.16385 12.1888 5.11689 11.974 5.11689C11.5111 5.11689 11.0979 5.33341 10.8299 5.67024L9.27038 2.96939C8.86725 2.27128 7.9713 2.03121 7.2731 2.43426C7.08705 2.54164 6.93395 2.68429 6.81647 2.84856L6.75172 2.73641C6.55647 2.39816 6.24117 2.15621 5.86394 2.0551C5.48676 1.95404 5.09274 2.00594 4.75449 2.20115C4.05633 2.60428 3.8163 3.50027 4.2194 4.19847L4.28415 4.31062C4.0831 4.33021 3.88308 4.39149 3.69698 4.49891C2.99882 4.902 2.75876 5.79798 3.16185 6.49618L3.31791 6.76641C3.11681 6.78601 2.91679 6.84728 2.73074 6.9547C2.03258 7.35779 1.79252 8.25378 2.19556 8.95194L6.47612 16.366C6.63691 16.6446 6.88119 16.8558 7.17449 16.9746L9.94916 21.7804C10.0061 21.8791 10.1 21.9512 10.2101 21.9807C10.2467 21.9905 10.2841 21.9953 10.3213 21.9953C10.3961 21.9953 10.4703 21.9758 10.5362 21.9378L10.8559 21.7532C10.9256 21.8964 11.0721 21.9953 11.2421 21.9953H20.4391C20.6765 21.9953 20.8689 21.8029 20.8689 21.5656V16.999L23.7853 11.9629C24.203 11.2415 23.9938 10.3044 23.3089 9.82927ZM7.42216 3.54448C7.46384 3.38902 7.56353 3.25909 7.70292 3.17861C7.99064 3.01253 8.36 3.1114 8.52612 3.39916L10.462 6.75211C10.4765 6.77733 10.4933 6.80045 10.5118 6.82146V9.24894L7.48232 4.00172C7.40188 3.86237 7.38048 3.69995 7.42216 3.54448ZM10.8124 20.7859L10.4787 20.9786L8.35665 17.3031L8.71673 17.3996C8.75394 17.4095 8.79137 17.4143 8.82819 17.4143C9.01794 17.4143 9.19158 17.2877 9.24301 17.0957C9.30446 16.8664 9.16842 16.6308 8.93914 16.5694L7.56594 16.2014C7.41911 16.1621 7.29644 16.068 7.22047 15.9363L2.93991 8.52225C2.77384 8.23453 2.87275 7.86526 3.16051 7.6991C3.44836 7.53294 3.81755 7.63194 3.98371 7.9197L7.02195 13.1821C7.14063 13.3876 7.40351 13.4581 7.60899 13.3394C7.79878 13.2298 7.87299 12.9974 7.78993 12.8007C7.78993 12.7955 7.78276 12.7808 7.7663 12.7523L3.90624 6.06645C3.74008 5.77869 3.83908 5.40942 4.12675 5.24326C4.41447 5.07718 4.78379 5.17605 4.94995 5.46377L8.55942 11.7155C8.63904 11.8534 8.78346 11.9305 8.932 11.9305C9.00488 11.9305 9.07883 11.9119 9.14646 11.8728C9.35202 11.7541 9.42245 11.4914 9.30373 11.2858L5.6943 5.03413C5.69426 5.03408 5.69421 5.034 5.69417 5.03391L4.9637 3.76874C4.88322 3.62935 4.86187 3.46697 4.9035 3.31147C4.94518 3.156 5.04487 3.02602 5.1843 2.94554C5.32369 2.86506 5.48607 2.84371 5.64158 2.88534C5.797 2.92702 5.92698 3.02671 6.00746 3.16614L10.3474 10.6832C10.3474 10.6833 10.3475 10.6834 10.3476 10.6835L10.5118 10.9679V15.0531C10.5118 15.3801 10.6189 15.6905 10.8124 15.9434V20.7859ZM23.0416 11.5322L20.0673 16.6682C20.0674 16.6683 20.0675 16.6684 20.0676 16.6684C20.0309 16.7318 20.0095 16.8051 20.0095 16.8836V19.0375H14.9922C14.7549 19.0375 14.5625 19.2299 14.5625 19.4672C14.5625 19.7045 14.755 19.8969 14.9922 19.8969H20.0094V21.1358H11.6719V16.6851L12.0027 16.9486C12.0819 17.0117 12.1764 17.0423 12.2703 17.0423C12.3966 17.0423 12.5218 16.9868 12.6067 16.8803C12.7545 16.6946 12.7239 16.4243 12.5383 16.2764L11.601 15.5296C11.4551 15.4134 11.3713 15.2396 11.3713 15.053V6.57903C11.3713 6.24675 11.6416 5.97643 11.9739 5.97643C12.3062 5.97643 12.5765 6.24675 12.5765 6.57903V12.6555C12.5765 12.8928 12.7689 13.0852 13.0062 13.0852C13.2435 13.0852 13.436 12.8928 13.436 12.6555V6.57903V4.93534C13.436 4.60311 13.7063 4.33279 14.0385 4.33279C14.3708 4.33279 14.6411 4.60311 14.6411 4.93534V12.1542C14.6411 12.3915 14.8336 12.5839 15.0708 12.5839C15.3081 12.5839 15.5006 12.3915 15.5006 12.1542V4.93534V3.47423C15.5006 3.142 15.7709 2.87168 16.1032 2.87168C16.4354 2.87168 16.7058 3.142 16.7058 3.47423V4.93538V12.1542C16.7058 12.3915 16.8982 12.584 17.1355 12.584C17.3728 12.584 17.5652 12.3915 17.5652 12.1542V4.93534C17.5652 4.60311 17.8355 4.33279 18.1678 4.33279C18.5001 4.33279 18.7704 4.60311 18.7704 4.93534V12.5925C18.7704 12.7663 18.8297 12.9372 18.9373 13.0738C19.0897 13.2672 19.3269 13.3779 19.5739 13.3696C19.8201 13.3615 20.0502 13.2353 20.1895 13.032L21.7677 10.7287C21.8819 10.562 22.0543 10.4501 22.2531 10.4135C22.4518 10.3771 22.6527 10.4203 22.8188 10.5355C23.139 10.7574 23.2367 11.1952 23.0416 11.5322Z"/>
</mask>
<path d="M23.3089 9.82927C22.9535 9.58272 22.5235 9.49004 22.0979 9.5682C21.6724 9.6464 21.3034 9.88604 21.0589 10.2429L19.6301 12.3281V4.93534C19.6301 4.12912 18.9742 3.47329 18.168 3.47329C17.9532 3.47329 17.7493 3.52021 17.5654 3.60374V3.47419C17.5654 2.66796 16.9095 2.01213 16.1033 2.01213C15.2971 2.01213 14.6412 2.66801 14.6412 3.47419V3.60374C14.4573 3.52021 14.2534 3.47329 14.0386 3.47329C13.2324 3.47329 12.5766 4.12916 12.5766 4.93534V5.24738C12.3927 5.16385 12.1888 5.11689 11.974 5.11689C11.5111 5.11689 11.0979 5.33341 10.8299 5.67024L9.27038 2.96939C8.86725 2.27128 7.9713 2.03121 7.2731 2.43426C7.08705 2.54164 6.93395 2.68429 6.81647 2.84856L6.75172 2.73641C6.55647 2.39816 6.24117 2.15621 5.86394 2.0551C5.48676 1.95404 5.09274 2.00594 4.75449 2.20115C4.05633 2.60428 3.8163 3.50027 4.2194 4.19847L4.28415 4.31062C4.0831 4.33021 3.88308 4.39149 3.69698 4.49891C2.99882 4.902 2.75876 5.79798 3.16185 6.49618L3.31791 6.76641C3.11681 6.78601 2.91679 6.84728 2.73074 6.9547C2.03258 7.35779 1.79252 8.25378 2.19556 8.95194L6.47612 16.366C6.63691 16.6446 6.88119 16.8558 7.17449 16.9746L9.94916 21.7804C10.0061 21.8791 10.1 21.9512 10.2101 21.9807C10.2467 21.9905 10.2841 21.9953 10.3213 21.9953C10.3961 21.9953 10.4703 21.9758 10.5362 21.9378L10.8559 21.7532C10.9256 21.8964 11.0721 21.9953 11.2421 21.9953H20.4391C20.6765 21.9953 20.8689 21.8029 20.8689 21.5656V16.999L23.7853 11.9629C24.203 11.2415 23.9938 10.3044 23.3089 9.82927ZM7.42216 3.54448C7.46384 3.38902 7.56353 3.25909 7.70292 3.17861C7.99064 3.01253 8.36 3.1114 8.52612 3.39916L10.462 6.75211C10.4765 6.77733 10.4933 6.80045 10.5118 6.82146V9.24894L7.48232 4.00172C7.40188 3.86237 7.38048 3.69995 7.42216 3.54448ZM10.8124 20.7859L10.4787 20.9786L8.35665 17.3031L8.71673 17.3996C8.75394 17.4095 8.79137 17.4143 8.82819 17.4143C9.01794 17.4143 9.19158 17.2877 9.24301 17.0957C9.30446 16.8664 9.16842 16.6308 8.93914 16.5694L7.56594 16.2014C7.41911 16.1621 7.29644 16.068 7.22047 15.9363L2.93991 8.52225C2.77384 8.23453 2.87275 7.86526 3.16051 7.6991C3.44836 7.53294 3.81755 7.63194 3.98371 7.9197L7.02195 13.1821C7.14063 13.3876 7.40351 13.4581 7.60899 13.3394C7.79878 13.2298 7.87299 12.9974 7.78993 12.8007C7.78993 12.7955 7.78276 12.7808 7.7663 12.7523L3.90624 6.06645C3.74008 5.77869 3.83908 5.40942 4.12675 5.24326C4.41447 5.07718 4.78379 5.17605 4.94995 5.46377L8.55942 11.7155C8.63904 11.8534 8.78346 11.9305 8.932 11.9305C9.00488 11.9305 9.07883 11.9119 9.14646 11.8728C9.35202 11.7541 9.42245 11.4914 9.30373 11.2858L5.6943 5.03413C5.69426 5.03408 5.69421 5.034 5.69417 5.03391L4.9637 3.76874C4.88322 3.62935 4.86187 3.46697 4.9035 3.31147C4.94518 3.156 5.04487 3.02602 5.1843 2.94554C5.32369 2.86506 5.48607 2.84371 5.64158 2.88534C5.797 2.92702 5.92698 3.02671 6.00746 3.16614L10.3474 10.6832C10.3474 10.6833 10.3475 10.6834 10.3476 10.6835L10.5118 10.9679V15.0531C10.5118 15.3801 10.6189 15.6905 10.8124 15.9434V20.7859ZM23.0416 11.5322L20.0673 16.6682C20.0674 16.6683 20.0675 16.6684 20.0676 16.6684C20.0309 16.7318 20.0095 16.8051 20.0095 16.8836V19.0375H14.9922C14.7549 19.0375 14.5625 19.2299 14.5625 19.4672C14.5625 19.7045 14.755 19.8969 14.9922 19.8969H20.0094V21.1358H11.6719V16.6851L12.0027 16.9486C12.0819 17.0117 12.1764 17.0423 12.2703 17.0423C12.3966 17.0423 12.5218 16.9868 12.6067 16.8803C12.7545 16.6946 12.7239 16.4243 12.5383 16.2764L11.601 15.5296C11.4551 15.4134 11.3713 15.2396 11.3713 15.053V6.57903C11.3713 6.24675 11.6416 5.97643 11.9739 5.97643C12.3062 5.97643 12.5765 6.24675 12.5765 6.57903V12.6555C12.5765 12.8928 12.7689 13.0852 13.0062 13.0852C13.2435 13.0852 13.436 12.8928 13.436 12.6555V6.57903V4.93534C13.436 4.60311 13.7063 4.33279 14.0385 4.33279C14.3708 4.33279 14.6411 4.60311 14.6411 4.93534V12.1542C14.6411 12.3915 14.8336 12.5839 15.0708 12.5839C15.3081 12.5839 15.5006 12.3915 15.5006 12.1542V4.93534V3.47423C15.5006 3.142 15.7709 2.87168 16.1032 2.87168C16.4354 2.87168 16.7058 3.142 16.7058 3.47423V4.93538V12.1542C16.7058 12.3915 16.8982 12.584 17.1355 12.584C17.3728 12.584 17.5652 12.3915 17.5652 12.1542V4.93534C17.5652 4.60311 17.8355 4.33279 18.1678 4.33279C18.5001 4.33279 18.7704 4.60311 18.7704 4.93534V12.5925C18.7704 12.7663 18.8297 12.9372 18.9373 13.0738C19.0897 13.2672 19.3269 13.3779 19.5739 13.3696C19.8201 13.3615 20.0502 13.2353 20.1895 13.032L21.7677 10.7287C21.8819 10.562 22.0543 10.4501 22.2531 10.4135C22.4518 10.3771 22.6527 10.4203 22.8188 10.5355C23.139 10.7574 23.2367 11.1952 23.0416 11.5322Z" fill="#311E19"/>
<path d="M23.3089 9.82927C22.9535 9.58272 22.5235 9.49004 22.0979 9.5682C21.6724 9.6464 21.3034 9.88604 21.0589 10.2429L19.6301 12.3281V4.93534C19.6301 4.12912 18.9742 3.47329 18.168 3.47329C17.9532 3.47329 17.7493 3.52021 17.5654 3.60374V3.47419C17.5654 2.66796 16.9095 2.01213 16.1033 2.01213C15.2971 2.01213 14.6412 2.66801 14.6412 3.47419V3.60374C14.4573 3.52021 14.2534 3.47329 14.0386 3.47329C13.2324 3.47329 12.5766 4.12916 12.5766 4.93534V5.24738C12.3927 5.16385 12.1888 5.11689 11.974 5.11689C11.5111 5.11689 11.0979 5.33341 10.8299 5.67024L9.27038 2.96939C8.86725 2.27128 7.9713 2.03121 7.2731 2.43426C7.08705 2.54164 6.93395 2.68429 6.81647 2.84856L6.75172 2.73641C6.55647 2.39816 6.24117 2.15621 5.86394 2.0551C5.48676 1.95404 5.09274 2.00594 4.75449 2.20115C4.05633 2.60428 3.8163 3.50027 4.2194 4.19847L4.28415 4.31062C4.0831 4.33021 3.88308 4.39149 3.69698 4.49891C2.99882 4.902 2.75876 5.79798 3.16185 6.49618L3.31791 6.76641C3.11681 6.78601 2.91679 6.84728 2.73074 6.9547C2.03258 7.35779 1.79252 8.25378 2.19556 8.95194L6.47612 16.366C6.63691 16.6446 6.88119 16.8558 7.17449 16.9746L9.94916 21.7804C10.0061 21.8791 10.1 21.9512 10.2101 21.9807C10.2467 21.9905 10.2841 21.9953 10.3213 21.9953C10.3961 21.9953 10.4703 21.9758 10.5362 21.9378L10.8559 21.7532C10.9256 21.8964 11.0721 21.9953 11.2421 21.9953H20.4391C20.6765 21.9953 20.8689 21.8029 20.8689 21.5656V16.999L23.7853 11.9629C24.203 11.2415 23.9938 10.3044 23.3089 9.82927ZM7.42216 3.54448C7.46384 3.38902 7.56353 3.25909 7.70292 3.17861C7.99064 3.01253 8.36 3.1114 8.52612 3.39916L10.462 6.75211C10.4765 6.77733 10.4933 6.80045 10.5118 6.82146V9.24894L7.48232 4.00172C7.40188 3.86237 7.38048 3.69995 7.42216 3.54448ZM10.8124 20.7859L10.4787 20.9786L8.35665 17.3031L8.71673 17.3996C8.75394 17.4095 8.79137 17.4143 8.82819 17.4143C9.01794 17.4143 9.19158 17.2877 9.24301 17.0957C9.30446 16.8664 9.16842 16.6308 8.93914 16.5694L7.56594 16.2014C7.41911 16.1621 7.29644 16.068 7.22047 15.9363L2.93991 8.52225C2.77384 8.23453 2.87275 7.86526 3.16051 7.6991C3.44836 7.53294 3.81755 7.63194 3.98371 7.9197L7.02195 13.1821C7.14063 13.3876 7.40351 13.4581 7.60899 13.3394C7.79878 13.2298 7.87299 12.9974 7.78993 12.8007C7.78993 12.7955 7.78276 12.7808 7.7663 12.7523L3.90624 6.06645C3.74008 5.77869 3.83908 5.40942 4.12675 5.24326C4.41447 5.07718 4.78379 5.17605 4.94995 5.46377L8.55942 11.7155C8.63904 11.8534 8.78346 11.9305 8.932 11.9305C9.00488 11.9305 9.07883 11.9119 9.14646 11.8728C9.35202 11.7541 9.42245 11.4914 9.30373 11.2858L5.6943 5.03413C5.69426 5.03408 5.69421 5.034 5.69417 5.03391L4.9637 3.76874C4.88322 3.62935 4.86187 3.46697 4.9035 3.31147C4.94518 3.156 5.04487 3.02602 5.1843 2.94554C5.32369 2.86506 5.48607 2.84371 5.64158 2.88534C5.797 2.92702 5.92698 3.02671 6.00746 3.16614L10.3474 10.6832C10.3474 10.6833 10.3475 10.6834 10.3476 10.6835L10.5118 10.9679V15.0531C10.5118 15.3801 10.6189 15.6905 10.8124 15.9434V20.7859ZM23.0416 11.5322L20.0673 16.6682C20.0674 16.6683 20.0675 16.6684 20.0676 16.6684C20.0309 16.7318 20.0095 16.8051 20.0095 16.8836V19.0375H14.9922C14.7549 19.0375 14.5625 19.2299 14.5625 19.4672C14.5625 19.7045 14.755 19.8969 14.9922 19.8969H20.0094V21.1358H11.6719V16.6851L12.0027 16.9486C12.0819 17.0117 12.1764 17.0423 12.2703 17.0423C12.3966 17.0423 12.5218 16.9868 12.6067 16.8803C12.7545 16.6946 12.7239 16.4243 12.5383 16.2764L11.601 15.5296C11.4551 15.4134 11.3713 15.2396 11.3713 15.053V6.57903C11.3713 6.24675 11.6416 5.97643 11.9739 5.97643C12.3062 5.97643 12.5765 6.24675 12.5765 6.57903V12.6555C12.5765 12.8928 12.7689 13.0852 13.0062 13.0852C13.2435 13.0852 13.436 12.8928 13.436 12.6555V6.57903V4.93534C13.436 4.60311 13.7063 4.33279 14.0385 4.33279C14.3708 4.33279 14.6411 4.60311 14.6411 4.93534V12.1542C14.6411 12.3915 14.8336 12.5839 15.0708 12.5839C15.3081 12.5839 15.5006 12.3915 15.5006 12.1542V4.93534V3.47423C15.5006 3.142 15.7709 2.87168 16.1032 2.87168C16.4354 2.87168 16.7058 3.142 16.7058 3.47423V4.93538V12.1542C16.7058 12.3915 16.8982 12.584 17.1355 12.584C17.3728 12.584 17.5652 12.3915 17.5652 12.1542V4.93534C17.5652 4.60311 17.8355 4.33279 18.1678 4.33279C18.5001 4.33279 18.7704 4.60311 18.7704 4.93534V12.5925C18.7704 12.7663 18.8297 12.9372 18.9373 13.0738C19.0897 13.2672 19.3269 13.3779 19.5739 13.3696C19.8201 13.3615 20.0502 13.2353 20.1895 13.032L21.7677 10.7287C21.8819 10.562 22.0543 10.4501 22.2531 10.4135C22.4518 10.3771 22.6527 10.4203 22.8188 10.5355C23.139 10.7574 23.2367 11.1952 23.0416 11.5322Z" stroke="white" stroke-width="2.3" mask="url(#path-1-outside-1_35_451)"/>
</svg>
