<svg width="15" height="19" viewBox="0 0 15 19" fill="none" xmlns="http://www.w3.org/2000/svg">
<path fill-rule="evenodd" clip-rule="evenodd" d="M7.5 18.6063L8.04811 18.1277C12.6572 14.1031 15 10.589 15 7.5C15 3.12555 11.5858 0 7.5 0C3.41421 0 0 3.12555 0 7.5C0 10.589 2.34276 14.1031 6.95189 18.1277L7.5 18.6063ZM7.5 16.3862C3.58884 12.8613 1.66667 9.87436 1.66667 7.5C1.66667 4.0805 4.30343 1.66667 7.5 1.66667C10.6966 1.66667 13.3333 4.0805 13.3333 7.5C13.3333 9.87436 11.4112 12.8613 7.5 16.3862ZM7.5 3.33333C9.80119 3.33333 11.6667 5.19881 11.6667 7.5C11.6667 9.80119 9.80119 11.6667 7.5 11.6667C5.19881 11.6667 3.33333 9.80119 3.33333 7.5C3.33333 5.19881 5.19881 3.33333 7.5 3.33333ZM5 7.5C5 6.11929 6.11929 5 7.5 5C8.88071 5 10 6.11929 10 7.5C10 8.88071 8.88071 10 7.5 10C6.11929 10 5 8.88071 5 7.5Z" fill="#90604C"/>
</svg>
