<svg width="16" height="20" viewBox="0 0 16 20" fill="none" xmlns="http://www.w3.org/2000/svg">
<path d="M15.5472 1.7651L15.5473 1.76512C15.7094 1.83181 15.8158 1.96944 15.8158 2.12349V16.3675C15.8163 16.3693 15.8167 16.3716 15.8167 16.3743V17.1243C15.8167 17.3495 15.5952 17.5243 15.3333 17.5243H14.4167H13.5C13.2381 17.5243 13.0167 17.3495 13.0167 17.1243V4.69594L9.98281 7.59237L10.2341 7.90071C10.3442 8.0359 10.3442 8.21335 10.2341 8.34854L10.2182 8.33565L10.2341 8.34854L9.40003 9.37215V17.125C9.40003 17.3503 9.17856 17.525 8.91668 17.525H8.00003H7.08337C6.82149 17.525 6.60003 17.3503 6.60003 17.125V9.37215L5.76599 8.34858L5.78537 8.33279L5.76599 8.34858C5.65585 8.21338 5.65585 8.03595 5.76598 7.90075C5.76599 7.90075 5.76599 7.90075 5.76599 7.90074L6.01631 7.59316L2.98337 4.69818V17.125C2.98337 17.3503 2.76191 17.525 2.50003 17.525H1.58337H0.666722C0.404839 17.525 0.183374 17.3503 0.183374 17.125V2.125C0.183374 1.97095 0.289771 1.83333 0.451861 1.76663L0.451908 1.76661L2.28445 1.01693C2.28814 1.01523 2.29152 1.01457 2.29393 1.01428C2.29554 1.01408 2.29709 1.01403 2.29814 1.01401C2.35945 0.990384 2.42678 0.975 2.50003 0.975C2.51417 0.975 2.52678 0.977323 2.53765 0.97969C2.54088 0.980394 2.54385 0.981073 2.54666 0.981714C2.55391 0.983367 2.56006 0.984771 2.56678 0.985724L2.56328 1.01048M15.5472 1.7651L2.84743 1.13124M15.5472 1.7651L13.714 1.01515C13.714 1.01514 13.7139 1.01513 13.7139 1.01512C13.71 1.0135 13.7064 1.01293 13.7038 1.0127C13.7016 1.01249 13.6995 1.01249 13.6985 1.01249L13.6984 1.01249C13.6983 1.01249 13.6982 1.01249 13.6982 1.01249C13.6377 0.989588 13.5713 0.975 13.5 0.975C13.4866 0.975 13.4747 0.977404 13.4648 0.979643C13.4629 0.980083 13.461 0.980508 13.4593 0.980915C13.4515 0.982707 13.4453 0.984139 13.4386 0.984893L13.4414 1.00974M15.5472 1.7651L13.1503 1.10224M2.56328 1.01048L2.56633 0.985663C2.58511 0.987972 2.6006 0.990333 2.61896 0.994303L2.61368 1.01874M2.56328 1.01048C2.58158 1.01273 2.59628 1.01498 2.61368 1.01874M2.56328 1.01048C2.55544 1.00937 2.54785 1.00763 2.54024 1.0059C2.52737 1.00296 2.51442 1 2.50003 1C2.42943 1 2.36437 1.01501 2.30478 1.03825C2.30295 1.03901 2.30111 1.03901 2.29939 1.03901C2.29766 1.03901 2.29605 1.03901 2.29468 1.03976L0.461374 1.78975C0.306472 1.85349 0.208374 1.98325 0.208374 2.125V17.125C0.208374 17.332 0.413722 17.5 0.666722 17.5H1.58337H2.50003C2.75303 17.5 2.95837 17.332 2.95837 17.125L2.83828 1.12674C2.77868 1.07274 2.70168 1.03748 2.61368 1.01874M2.61368 1.01874L2.61889 0.994286C2.70868 1.01341 2.78887 1.04942 2.85198 1.10545C2.85522 1.10655 2.86044 1.10885 2.86504 1.11349M2.86504 1.11349C2.8653 1.11375 2.86557 1.11403 2.86582 1.11431L2.84743 1.13124M2.86504 1.11349L2.86469 1.11315L2.84743 1.13124M2.86504 1.11349L7.60745 5.64043M2.84743 1.13124L7.59143 5.6597L7.59933 5.64998L7.5994 5.6499C7.60203 5.6467 7.60471 5.64354 7.60745 5.64043M7.60745 5.64043L7.62555 5.6577C7.62323 5.66035 7.62095 5.66304 7.61872 5.66576L7.60957 5.67701L7.60957 5.67701L8.37341 5.65641L8.39151 5.63914M7.60745 5.64043C7.69986 5.53542 7.8516 5.48496 8.00005 5.48496C8.14789 5.48496 8.29899 5.53501 8.39151 5.63914M8.39151 5.63914L13.1344 1.11091L13.1358 1.10958L13.1358 1.10964C13.1391 1.10696 13.1424 1.1053 13.1448 1.10424C13.147 1.1033 13.1491 1.10262 13.1501 1.10227L13.1503 1.10224M8.39151 5.63914L13.1503 1.10224M8.40774 5.65821L8.38962 5.6755L8.40774 5.65821ZM8.40774 5.65821L8.4007 5.6499L8.38138 5.66575L8.40045 5.6496L8.40059 5.64976L8.40774 5.65821ZM13.1503 1.10224C13.2116 1.04892 13.2891 1.01425 13.3755 0.995072L13.3757 0.995026L13.3757 0.995027C13.3974 0.990382 13.4157 0.987229 13.4388 0.984868L13.4414 1.00974M13.4414 1.00974C13.4497 1.00881 13.4576 1.00698 13.4654 1.00516C13.4765 1.00258 13.4876 1 13.5 1C13.5688 1 13.6329 1.01424 13.6916 1.03674L13.1517 1.12899C13.1535 1.12747 13.1558 1.12672 13.1581 1.12596C13.1604 1.12521 13.1627 1.12447 13.1645 1.12298C13.2223 1.07196 13.2965 1.03821 13.3809 1.01948C13.402 1.01498 13.4194 1.01199 13.4414 1.00974ZM8.4008 10.5985L8.43342 10.5585V15.975H7.56672V10.5585L7.59934 10.5985L7.59937 10.5986C7.69002 10.7094 7.84057 10.775 8.00007 10.775C8.15957 10.775 8.31012 10.7094 8.40077 10.5986L8.4008 10.5985ZM8.51445 9.0276L8.00003 9.65892L7.48406 9.02571L7.47655 9.0165H7.47625L6.74987 8.12501L7.02141 7.79176L7.02152 7.79167L7.0222 7.79111L7.02253 7.79151L7.02576 7.78755L8.00003 6.59108L8.97187 7.78417C8.97249 7.78514 8.97319 7.78607 8.97395 7.78696C8.97519 7.7884 8.97647 7.78956 8.97762 7.79047L9.25022 8.12501L8.51927 9.02206C8.51821 9.02297 8.51715 9.02404 8.51613 9.02528C8.51552 9.02603 8.51496 9.0268 8.51445 9.0276ZM2.01668 15.975H1.15003V2.37355L2.01668 2.01972V15.975ZM7.04754 6.32787L6.57598 6.90624L2.98337 3.4778V2.44892L7.04754 6.32787ZM13.0167 2.44667V3.47555L9.42314 6.90549L8.95156 6.32637L13.0167 2.44667ZM14.85 15.975H13.9834V2.01898L14.85 2.37353V15.975Z" fill="#311E19" stroke="#311E19" stroke-width="0.05"/>
<path d="M7.51663 17.875V18.625C7.51663 18.8502 7.7381 19.025 7.99998 19.025C8.26187 19.025 8.48334 18.8502 8.48334 18.625V17.875C8.48334 17.6497 8.26187 17.475 7.99998 17.475C7.7381 17.475 7.51663 17.6497 7.51663 17.875Z" fill="#311E19" stroke="#311E19" stroke-width="0.05"/>
<path d="M14.4167 17.475C14.1548 17.475 13.9333 17.6497 13.9333 17.875V18.625C13.9333 18.8502 14.1548 19.025 14.4167 19.025C14.6785 19.025 14.9 18.8502 14.9 18.625V17.875C14.9 17.6497 14.6785 17.475 14.4167 17.475Z" fill="#311E19" stroke="#311E19" stroke-width="0.05"/>
<path d="M1.1 17.875V18.625C1.1 18.8502 1.32147 19.025 1.58335 19.025C1.84523 19.025 2.0667 18.8502 2.0667 18.625V17.875C2.0667 17.6497 1.84523 17.475 1.58335 17.475C1.32147 17.475 1.1 17.6497 1.1 17.875Z" fill="#311E19" stroke="#311E19" stroke-width="0.05"/>
</svg>
