<svg width="23" height="23" viewBox="0 0 23 23" fill="none" xmlns="http://www.w3.org/2000/svg">
<path fill-rule="evenodd" clip-rule="evenodd" d="M10.2477 7.47153C10.8176 6.70353 11.0219 5.89412 10.3774 5.17966C8.93098 3.15576 7.95824 1.90419 7.34809 1.30146C6.18812 0.155595 4.27995 0.310591 3.27533 1.30048C2.73573 1.83216 2.55306 2.01474 1.99902 2.57749C-1.08708 5.66525 0.79498 12.1927 5.79819 17.2008C10.8003 22.2078 17.3271 24.0909 20.4196 20.9966C20.9309 20.5037 21.3638 20.0706 21.7052 19.7098C22.6897 18.6692 22.8391 16.8452 21.6987 15.6602C21.114 15.0527 19.9205 14.1269 17.8114 12.6183C17.1655 12.0407 16.3996 12.1659 15.6974 12.6265C15.3597 12.8481 15.1139 13.0723 14.6497 13.5369L13.8069 14.3802C13.6959 14.4913 12.1885 13.7364 10.7253 12.2717C9.26122 10.8062 8.50685 9.29874 8.61734 9.18825C8.84519 8.96042 9.12632 8.67913 9.46076 8.34437C9.60802 8.19697 9.67842 8.1256 9.7687 8.03071C9.9568 7.83302 10.1125 7.65361 10.2477 7.47153ZM15.3613 15.9362L16.2043 15.0927C16.4597 14.837 16.6253 14.6798 16.7599 14.5714C18.6075 15.8982 19.6775 16.7324 20.1146 17.1866C20.377 17.4592 20.3362 17.9567 20.1081 18.1978C19.7924 18.5315 19.3823 18.9418 18.879 19.4273C16.8792 21.4279 11.6106 19.9078 7.3529 15.646C3.09388 11.3828 1.57455 6.11338 3.55922 4.12761C4.11103 3.56717 4.28586 3.39243 4.81774 2.86834C5.01717 2.67184 5.5604 2.62772 5.803 2.86737C6.27276 3.33141 7.14414 4.44715 8.426 6.23276C8.35964 6.31515 8.27676 6.40825 8.1759 6.51426C8.10187 6.59206 8.04019 6.65458 7.90536 6.78955C7.57118 7.12405 7.29031 7.40508 7.06277 7.6326C5.62936 9.06589 6.8501 11.5053 9.16986 13.8273C11.488 16.1478 13.9283 17.3699 15.3613 15.9362Z" fill="#90604C"/>
</svg>
