<svg width="98" height="40" viewBox="0 0 98 40" fill="none" xmlns="http://www.w3.org/2000/svg">
<rect width="98" height="40" rx="3" fill="#41ABE1"/>
<path d="M58 13.8276C57.2934 14.1375 56.5406 14.3429 55.7556 14.4427C56.5631 13.9606 57.1794 13.2029 57.4692 12.2897C56.7163 12.7386 55.8851 13.0557 54.9992 13.2326C54.2843 12.4714 53.2654 12 52.1539 12C49.9974 12 48.2613 13.7504 48.2613 15.8962C48.2613 16.2049 48.2874 16.5018 48.3516 16.7844C45.1132 16.6265 42.2478 15.0744 40.3229 12.7101C39.9868 13.2932 39.7897 13.9606 39.7897 14.679C39.7897 16.028 40.4844 17.2238 41.5199 17.9161C40.8941 17.9042 40.2801 17.7226 39.76 17.4364C39.76 17.4483 39.76 17.4637 39.76 17.4791C39.76 19.372 41.1102 20.9443 42.8807 21.3064C42.5637 21.3931 42.2181 21.4347 41.8595 21.4347C41.6101 21.4347 41.3584 21.4204 41.1221 21.3682C41.6267 22.9108 43.0589 24.0448 44.7618 24.0816C43.4365 25.1183 41.7538 25.7429 39.9322 25.7429C39.6128 25.7429 39.3064 25.7287 39 25.6895C40.7254 26.8022 42.7703 27.4375 44.9755 27.4375C52.1432 27.4375 56.062 21.5 56.062 16.3534C56.062 16.1812 56.0561 16.0149 56.0478 15.8499C56.8208 15.3013 57.4704 14.6161 58 13.8276Z" fill="white"/>
</svg>
