<svg width="19" height="20" viewBox="0 0 19 20" fill="none" xmlns="http://www.w3.org/2000/svg">
<mask id="path-1-outside-1_35_425" maskUnits="userSpaceOnUse" x="0" y="0" width="19" height="20" fill="black">
<rect fill="white" width="19" height="20"/>
<path fill-rule="evenodd" clip-rule="evenodd" d="M8.33743 2.6945H16.1684C17.1783 2.6945 18.0001 3.56448 18 4.634V5V6V15V16V17.0605C18 18.13 17.1783 19 16.1684 19H3.09843C1.94137 19 1 18.0033 1 16.7782V10V9V3.22185C1 1.99673 1.94137 1 3.09843 1H6.29918C7.28478 1 8.11318 1.72318 8.33743 2.6945ZM17.004 5V4.634C17.004 4.14607 16.6291 3.74919 16.1684 3.74919H8.39774V5H17.004ZM8.39774 6H17.004V15H8.39774V6ZM8.39774 16.7782V16H17.004V17.0605C17.004 17.5484 16.6291 17.9453 16.1684 17.9453H8.08373C8.28256 17.6058 8.39774 17.2061 8.39774 16.7782ZM1.9961 10V14.8886C2.31672 14.6781 2.69428 14.5563 3.09843 14.5563H6.29918C6.70333 14.5563 7.08102 14.6781 7.40151 14.8886V10H1.9961ZM7.40151 9H1.9961V3.22185C1.9961 2.57832 2.49065 2.05469 3.09843 2.05469H6.29918C6.90709 2.05469 7.40151 2.57832 7.40151 3.22185V9ZM3.09843 15.611C2.49065 15.611 1.9961 16.1345 1.9961 16.7782C1.9961 17.4217 2.49065 17.9453 3.09843 17.9453H6.29918C6.90709 17.9453 7.40151 17.4217 7.40151 16.7782C7.40151 16.1345 6.90709 15.611 6.29918 15.611H3.09843Z"/>
</mask>
<path fill-rule="evenodd" clip-rule="evenodd" d="M8.33743 2.6945H16.1684C17.1783 2.6945 18.0001 3.56448 18 4.634V5V6V15V16V17.0605C18 18.13 17.1783 19 16.1684 19H3.09843C1.94137 19 1 18.0033 1 16.7782V10V9V3.22185C1 1.99673 1.94137 1 3.09843 1H6.29918C7.28478 1 8.11318 1.72318 8.33743 2.6945ZM17.004 5V4.634C17.004 4.14607 16.6291 3.74919 16.1684 3.74919H8.39774V5H17.004ZM8.39774 6H17.004V15H8.39774V6ZM8.39774 16.7782V16H17.004V17.0605C17.004 17.5484 16.6291 17.9453 16.1684 17.9453H8.08373C8.28256 17.6058 8.39774 17.2061 8.39774 16.7782ZM1.9961 10V14.8886C2.31672 14.6781 2.69428 14.5563 3.09843 14.5563H6.29918C6.70333 14.5563 7.08102 14.6781 7.40151 14.8886V10H1.9961ZM7.40151 9H1.9961V3.22185C1.9961 2.57832 2.49065 2.05469 3.09843 2.05469H6.29918C6.90709 2.05469 7.40151 2.57832 7.40151 3.22185V9ZM3.09843 15.611C2.49065 15.611 1.9961 16.1345 1.9961 16.7782C1.9961 17.4217 2.49065 17.9453 3.09843 17.9453H6.29918C6.90709 17.9453 7.40151 17.4217 7.40151 16.7782C7.40151 16.1345 6.90709 15.611 6.29918 15.611H3.09843Z" fill="#311E19"/>
<path d="M8.33743 2.6945L8.19127 2.72825L8.21811 2.8445H8.33743V2.6945ZM18 4.634L17.85 4.63398V4.634H18ZM17.004 5V5.15H17.154V5H17.004ZM8.39774 3.74919V3.59919H8.24774V3.74919H8.39774ZM8.39774 5H8.24774V5.15H8.39774V5ZM17.004 6H17.154V5.85H17.004V6ZM8.39774 6V5.85H8.24774V6H8.39774ZM17.004 15V15.15H17.154V15H17.004ZM8.39774 15H8.24774V15.15H8.39774V15ZM8.39774 16V15.85H8.24774V16H8.39774ZM17.004 16H17.154V15.85H17.004V16ZM8.08373 17.9453L7.9543 17.8695L7.82204 18.0953H8.08373V17.9453ZM1.9961 14.8886H1.8461V15.1666L2.07843 15.014L1.9961 14.8886ZM1.9961 10V9.85H1.8461V10H1.9961ZM7.40151 14.8886L7.31915 15.014L7.55151 15.1666V14.8886H7.40151ZM7.40151 10H7.55151V9.85H7.40151V10ZM1.9961 9H1.8461V9.15H1.9961V9ZM7.40151 9V9.15H7.55151V9H7.40151ZM16.1684 2.5445H8.33743V2.8445H16.1684V2.5445ZM18.15 4.63402C18.1501 3.48983 17.2691 2.5445 16.1684 2.5445V2.8445C17.0876 2.8445 17.8501 3.63914 17.85 4.63398L18.15 4.63402ZM18.15 5V4.634H17.85V5H18.15ZM17.85 5V6H18.15V5H17.85ZM18.15 15V6H17.85V15H18.15ZM18.15 16V15H17.85V16H18.15ZM18.15 17.0605V16H17.85V17.0605H18.15ZM16.1684 19.15C17.2692 19.15 18.15 18.2047 18.15 17.0605H17.85C17.85 18.0554 17.0875 18.85 16.1684 18.85V19.15ZM3.09843 19.15H16.1684V18.85H3.09843V19.15ZM0.85 16.7782C0.85 18.0779 1.85056 19.15 3.09843 19.15V18.85C2.03217 18.85 1.15 17.9286 1.15 16.7782H0.85ZM0.85 10V16.7782H1.15V10H0.85ZM0.85 9V10H1.15V9H0.85ZM0.85 3.22185V9H1.15V3.22185H0.85ZM3.09843 0.85C1.85056 0.85 0.85 1.92208 0.85 3.22185H1.15C1.15 2.07139 2.03217 1.15 3.09843 1.15V0.85ZM6.29918 0.85H3.09843V1.15H6.29918V0.85ZM8.48358 2.66076C8.2453 1.62865 7.36182 0.85 6.29918 0.85V1.15C7.20774 1.15 7.98105 1.8177 8.19127 2.72825L8.48358 2.66076ZM17.154 5V4.634H16.854V5H17.154ZM17.154 4.634C17.154 4.07141 16.7199 3.59919 16.1684 3.59919V3.89919C16.5383 3.89919 16.854 4.22074 16.854 4.634H17.154ZM16.1684 3.59919H8.39774V3.89919H16.1684V3.59919ZM8.24774 3.74919V5H8.54774V3.74919H8.24774ZM8.39774 5.15H17.004V4.85H8.39774V5.15ZM17.004 5.85H8.39774V6.15H17.004V5.85ZM17.154 15V6H16.854V15H17.154ZM8.39774 15.15H17.004V14.85H8.39774V15.15ZM8.24774 6V15H8.54774V6H8.24774ZM8.24774 16V16.7782H8.54774V16H8.24774ZM17.004 15.85H8.39774V16.15H17.004V15.85ZM17.154 17.0605V16H16.854V17.0605H17.154ZM16.1684 18.0953C16.7199 18.0953 17.154 17.6231 17.154 17.0605H16.854C16.854 17.4738 16.5383 17.7953 16.1684 17.7953V18.0953ZM8.08373 18.0953H16.1684V17.7953H8.08373V18.0953ZM8.24774 16.7782C8.24774 17.1789 8.13992 17.5526 7.9543 17.8695L8.21317 18.0211C8.42521 17.6591 8.54774 17.2332 8.54774 16.7782H8.24774ZM2.1461 14.8886V10H1.8461V14.8886H2.1461ZM3.09843 14.4063C2.66353 14.4063 2.25757 14.5375 1.91377 14.7633L2.07843 15.014C2.37588 14.8187 2.72503 14.7063 3.09843 14.7063V14.4063ZM6.29918 14.4063H3.09843V14.7063H6.29918V14.4063ZM7.48386 14.7633C7.14017 14.5375 6.73407 14.4063 6.29918 14.4063V14.7063C6.67259 14.7063 7.02186 14.8187 7.31915 15.014L7.48386 14.7633ZM7.25151 10V14.8886H7.55151V10H7.25151ZM1.9961 10.15H7.40151V9.85H1.9961V10.15ZM1.9961 9.15H7.40151V8.85H1.9961V9.15ZM1.8461 3.22185V9H2.1461V3.22185H1.8461ZM3.09843 1.90469C2.39985 1.90469 1.8461 2.50367 1.8461 3.22185H2.1461C2.1461 2.65297 2.58145 2.20469 3.09843 2.20469V1.90469ZM6.29918 1.90469H3.09843V2.20469H6.29918V1.90469ZM7.55151 3.22185C7.55151 2.50368 6.9979 1.90469 6.29918 1.90469V2.20469C6.81627 2.20469 7.25151 2.65296 7.25151 3.22185H7.55151ZM7.55151 9V3.22185H7.25151V9H7.55151ZM2.1461 16.7782C2.1461 16.2092 2.58144 15.761 3.09843 15.761V15.461C2.39986 15.461 1.8461 16.0598 1.8461 16.7782H2.1461ZM3.09843 17.7953C2.58145 17.7953 2.1461 17.347 2.1461 16.7782H1.8461C1.8461 17.4963 2.39985 18.0953 3.09843 18.0953V17.7953ZM6.29918 17.7953H3.09843V18.0953H6.29918V17.7953ZM7.25151 16.7782C7.25151 17.347 6.81627 17.7953 6.29918 17.7953V18.0953C6.9979 18.0953 7.55151 17.4963 7.55151 16.7782H7.25151ZM6.29918 15.761C6.81628 15.761 7.25151 16.2091 7.25151 16.7782H7.55151C7.55151 16.0598 6.99789 15.461 6.29918 15.461V15.761ZM3.09843 15.761H6.29918V15.461H3.09843V15.761Z" fill="#311E19" mask="url(#path-1-outside-1_35_425)"/>
</svg>
