<svg width="98" height="40" viewBox="0 0 98 40" fill="none" xmlns="http://www.w3.org/2000/svg">
<rect width="98" height="40" rx="3" fill="#4B77A6"/>
<path d="M48.2539 26.9452H49.6282C49.6282 26.9452 50.0437 26.8997 50.255 26.6732C50.4506 26.4653 50.4434 26.0751 50.4434 26.0751C50.4434 26.0751 50.4161 24.248 51.2729 23.9788C52.1167 23.7139 53.2007 25.7447 54.3493 26.5265C55.2177 27.1175 55.8775 26.988 55.8775 26.988L58.9497 26.9452C58.9497 26.9452 60.5569 26.847 59.795 25.5952C59.7332 25.4926 59.3508 24.6695 57.5106 22.9777C55.5842 21.2061 55.843 21.4938 58.1633 18.4305C59.5765 16.5649 60.1415 15.4256 59.9646 14.9386C59.7964 14.4743 58.757 14.5968 58.757 14.5968L55.301 14.6168C55.301 14.6168 55.0451 14.5826 54.8539 14.6951C54.6685 14.8062 54.5492 15.0625 54.5492 15.0625C54.5492 15.0625 54.0014 16.5065 53.2711 17.7341C51.7315 20.3246 51.1147 20.4613 50.8632 20.3004C50.278 19.9258 50.4247 18.7937 50.4247 17.9905C50.4247 15.4798 50.8085 14.433 49.6757 14.1625C49.299 14.0727 49.023 14.0129 48.0613 14.003C46.8278 13.9902 45.7827 14.0072 45.1918 14.2935C44.7979 14.4843 44.4946 14.9101 44.68 14.9343C44.9086 14.9642 45.4261 15.0725 45.7007 15.4427C46.0558 15.9198 46.0429 16.9936 46.0429 16.9936C46.0429 16.9936 46.247 19.9486 45.567 20.316C45.0998 20.5681 44.4601 20.054 43.0871 17.7028C42.3842 16.4994 41.8522 15.1679 41.8522 15.1679C41.8522 15.1679 41.7502 14.9201 41.5676 14.7877C41.3462 14.6267 41.0357 14.5755 41.0357 14.5755L37.7493 14.5954C37.7493 14.5954 37.2562 14.6096 37.0751 14.8218C36.9141 15.0112 37.0621 15.4014 37.0621 15.4014C37.0621 15.4014 39.6355 21.3642 42.548 24.3705C45.2205 27.1261 48.2539 26.9452 48.2539 26.9452Z" fill="white"/>
</svg>
