<svg width="21" height="20" viewBox="0 0 21 20" fill="none" xmlns="http://www.w3.org/2000/svg">
<path d="M2.06534 4.64703L2.06535 4.64702C2.08096 4.62648 2.09675 4.60645 2.11279 4.58611C2.11638 4.58155 2.11999 4.57697 2.12361 4.57237C2.46944 4.54776 3.33374 4.70858 4.47205 5.38353C5.14612 5.78322 5.62155 6.18852 5.92898 6.51976C6.08275 6.68543 6.19412 6.83217 6.26729 6.95003C6.30389 7.00897 6.33062 7.06019 6.34832 7.10255C6.36367 7.13927 6.37144 7.16746 6.37387 7.18729C6.24294 7.45969 6.32832 7.82623 6.67155 8.05047L6.6716 8.0505C6.97896 8.2506 7.37475 8.1929 7.56515 7.9135C7.71073 7.89657 8.00607 7.92765 8.42602 8.04623C8.85262 8.16668 9.40376 8.37625 10.0492 8.71222L6.05723 15.8575C5.4145 17.0079 5.90833 18.5392 7.14711 19.2737C8.38589 20.0083 9.9192 19.6789 10.5619 18.5285L10.8477 18.0169C11.0179 17.7123 10.8861 17.3128 10.5643 17.122C10.2425 16.9312 9.84095 17.0144 9.67075 17.3191L9.38495 17.8306C9.08212 18.3727 8.35334 18.5351 7.75722 18.1817C7.1611 17.8282 6.93139 17.0974 7.23421 16.5554L11.2259 9.41058C11.814 9.80608 12.2513 10.1808 12.5547 10.4908C12.8533 10.7959 13.0193 11.0353 13.0743 11.1689C12.9327 11.4713 13.0704 11.8455 13.3762 12.0268C13.7373 12.2409 14.1095 12.1369 14.2783 11.8742C14.2962 11.8664 14.3238 11.8592 14.3623 11.8544C14.4067 11.8489 14.4632 11.847 14.531 11.85C14.6667 11.8559 14.8458 11.8814 15.0621 11.9352C15.4946 12.0427 16.0735 12.2626 16.7476 12.6623C17.886 13.3372 18.4551 14.0264 18.6081 14.3468C18.6063 14.3518 18.6045 14.3568 18.6026 14.3618C18.5944 14.3843 18.5863 14.4064 18.5777 14.4286C18.5048 14.6172 18.5403 14.809 18.6212 14.9685C18.7018 15.1276 18.8295 15.2587 18.9491 15.3297C19.2709 15.5205 19.6725 15.4372 19.8427 15.1326C19.9141 15.0048 19.9825 14.8135 19.9743 14.5593C21.4265 10.1827 19.5244 5.04092 15.2654 2.18029L15.5607 1.65168C15.7309 1.34704 15.5991 0.947532 15.2773 0.756716C14.9554 0.5659 14.5539 0.649152 14.3837 0.953795L14.0884 1.48232C9.56418 -0.867739 4.22047 -0.0433913 1.25926 3.46206C1.04155 3.58236 0.915327 3.73956 0.843897 3.86742C0.673697 4.17206 0.805523 4.57156 1.12734 4.76238C1.23818 4.82811 1.40802 4.88151 1.58159 4.87832C1.75597 4.87512 1.93801 4.81447 2.06534 4.64703ZM11.7384 1.8742C9.95254 2.68338 8.29028 4.49469 7.17092 6.04666C6.64509 5.35945 5.83439 4.73752 5.08215 4.29149C4.44417 3.9132 3.78915 3.62323 3.19153 3.45185C5.4301 1.52741 8.66459 0.943962 11.7384 1.8742ZM11.2569 7.95277C10.3973 7.44309 9.33228 6.94142 8.37306 6.72338C9.52567 5.15217 10.7041 4.05394 11.7185 3.42005C12.2311 3.09972 12.7005 2.89875 13.1027 2.81451C13.5052 2.73018 13.8363 2.76357 14.0765 2.906C14.3256 3.0537 14.5175 3.33899 14.641 3.74598C14.7643 4.15263 14.8178 4.6766 14.793 5.29431C14.7439 6.51618 14.3886 8.09812 13.6708 9.84858C13.0779 9.18126 12.1957 8.50944 11.2569 7.95277ZM17.3577 11.5702C16.6087 11.1261 15.6804 10.7157 14.8374 10.5915C15.5762 8.83371 16.289 6.44431 16.0974 4.45991C18.394 6.71496 19.5093 9.87729 19.0135 12.8339C18.5692 12.3872 17.9964 11.9489 17.3577 11.5702Z" fill="#311E19" stroke="#311E19" stroke-width="0.08"/>
</svg>
