<svg width="17" height="24" viewBox="0 0 17 24" fill="none" xmlns="http://www.w3.org/2000/svg">
<path d="M16.2973 3.31585L11.1391 0.337843C10.9742 0.242679 10.7735 0.233581 10.6006 0.313404C10.4277 0.393226 10.3044 0.552015 10.2699 0.73929L9.53664 4.72423L0.364902 17.4829C0.275459 17.6072 0.238343 17.7617 0.261396 17.9132L0.529905 19.6764C0.530192 19.678 0.530479 19.6797 0.530805 19.6815L1.02139 22.9031C1.04829 23.079 1.1536 23.2332 1.30778 23.3223C1.44308 23.4004 1.60306 23.4209 1.75237 23.3808C1.77315 23.3753 1.79362 23.3685 1.81391 23.3606L6.51534 21.5237C6.65809 21.4681 6.77313 21.3586 6.83623 21.2191L12.8672 7.85515C12.8673 7.85497 12.8673 7.85497 12.8673 7.85497L13.2997 6.89682L16.3841 4.26933C16.529 4.14582 16.605 3.95959 16.5877 3.76993C16.5704 3.58041 16.4621 3.41101 16.2973 3.31585ZM7.74362 16.3595L1.57718 18.7688L1.45586 17.9729L1.88006 17.3829L8.43808 14.8208L7.74362 16.3595ZM9.12748 13.2934L3.13758 15.6334L4.40461 13.871L9.82191 11.7546L9.12748 13.2934ZM10.5112 10.2271L5.66213 12.1215L6.92891 10.3594L11.2055 8.68855L10.5112 10.2271ZM11.8949 7.16108L8.18658 8.60983L10.2553 5.73207L12.0677 6.7783L11.8949 7.16108ZM5.86644 20.5193L2.06974 22.0025L1.75805 19.9561L7.05436 17.8869L5.86644 20.5193ZM12.7546 5.82176L10.7401 4.65879L11.2722 1.76783L14.9924 3.91558L12.7546 5.82176Z" fill="#311E19"/>
</svg>
