<svg width="31" height="35" viewBox="0 0 31 35" fill="none" xmlns="http://www.w3.org/2000/svg">
<path d="M7.06534 12.647L7.06535 12.647C7.08097 12.6265 7.09675 12.6065 7.11279 12.5861C7.11638 12.5815 7.11999 12.577 7.12361 12.5724C7.46944 12.5478 8.33374 12.7086 9.47205 13.3835C10.1461 13.7832 10.6215 14.1885 10.929 14.5198C11.0827 14.6854 11.1941 14.8322 11.2673 14.95C11.3039 15.009 11.3306 15.0602 11.3483 15.1026C11.3637 15.1393 11.3714 15.1675 11.3739 15.1873C11.2429 15.4597 11.3283 15.8262 11.6716 16.0505L11.6716 16.0505C11.979 16.2506 12.3747 16.1929 12.5652 15.9135C12.7107 15.8966 13.0061 15.9277 13.426 16.0462C13.8526 16.1667 14.4038 16.3762 15.0492 16.7122L11.0572 23.8575C10.4145 25.0079 10.9083 26.5392 12.1471 27.2737C13.3859 28.0082 14.9192 27.6789 15.5619 26.5285L15.8477 26.0169C16.0179 25.7123 15.8861 25.3128 15.5643 25.122C15.2425 24.9312 14.841 25.0144 14.6708 25.3191L14.3849 25.8306C14.0821 26.3727 13.3533 26.5351 12.7572 26.1817C12.1611 25.8282 11.9314 25.0974 12.2342 24.5554L16.2259 17.4106C16.814 17.8061 17.2513 18.1808 17.5547 18.4908C17.8533 18.7959 18.0193 19.0353 18.0743 19.1689C17.9327 19.4713 18.0704 19.8455 18.3762 20.0268C18.7373 20.2409 19.1095 20.1369 19.2783 19.8742C19.2962 19.8664 19.3238 19.8592 19.3623 19.8544C19.4067 19.8489 19.4632 19.847 19.531 19.85C19.6667 19.8559 19.8458 19.8814 20.0621 19.9352C20.4946 20.0427 21.0735 20.2626 21.7476 20.6623C22.886 21.3372 23.4551 22.0264 23.6081 22.3468C23.6063 22.3518 23.6045 22.3567 23.6027 22.3616C23.5944 22.3841 23.5863 22.4063 23.5777 22.4286C23.5048 22.6172 23.5403 22.809 23.6212 22.9685C23.7018 23.1276 23.8295 23.2587 23.9491 23.3297C24.2709 23.5205 24.6725 23.4372 24.8427 23.1326C24.9141 23.0048 24.9825 22.8135 24.9743 22.5593C26.4265 18.1827 24.5244 13.0409 20.2654 10.1803L20.5607 9.65168C20.7309 9.34704 20.5991 8.94753 20.2773 8.75672C19.9554 8.5659 19.5539 8.64915 19.3837 8.9538L19.0884 9.48232C14.5642 7.13226 9.22047 7.95661 6.25926 11.4621C6.04155 11.5824 5.91533 11.7396 5.8439 11.8674C5.6737 12.1721 5.80552 12.5716 6.12734 12.7624C6.23818 12.8281 6.40802 12.8815 6.58159 12.8783C6.75597 12.8751 6.93801 12.8145 7.06534 12.647ZM16.7384 9.8742C14.9525 10.6834 13.2903 12.4947 12.1709 14.0467C11.6451 13.3595 10.8344 12.7375 10.0822 12.2915C9.44417 11.9132 8.78915 11.6232 8.19153 11.4518C10.4301 9.52741 13.6646 8.94396 16.7384 9.8742ZM16.2569 15.9528C15.3973 15.4431 14.3323 14.9414 13.3731 14.7234C14.5257 13.1522 15.7041 12.0539 16.7185 11.42C17.2311 11.0997 17.7005 10.8988 18.1027 10.8145C18.5052 10.7302 18.8363 10.7636 19.0765 10.906C19.3256 11.0537 19.5175 11.339 19.641 11.746C19.7643 12.1526 19.8178 12.6766 19.793 13.2943C19.7439 14.5162 19.3886 16.0981 18.6708 17.8486C18.0779 17.1813 17.1957 16.5094 16.2569 15.9528ZM22.3577 19.5702C21.6087 19.1261 20.6804 18.7157 19.8374 18.5915C20.5762 16.8337 21.289 14.4443 21.0974 12.4599C23.394 14.715 24.5093 17.8773 24.0135 20.8339C23.5692 20.3872 22.9964 19.9489 22.3577 19.5702Z" fill="#311E19" stroke="#311E19" stroke-width="0.08"/>
</svg>
