<svg width="18" height="18" viewBox="0 0 18 18" fill="none" xmlns="http://www.w3.org/2000/svg">
<path d="M15.7 3.75V3.8H15.75C16.9633 3.8 17.95 4.78671 17.95 6V15C17.95 16.2133 16.9633 17.2 15.75 17.2H2.25C1.03671 17.2 0.05 16.2133 0.05 15V3C0.05 1.78671 1.03671 0.8 2.25 0.8H13.5C14.7133 0.8 15.7 1.78671 15.7 3V3.75ZM14.25 3.8H14.3V3.75V3C14.3 2.55875 13.9412 2.2 13.5 2.2H2.25C1.80875 2.2 1.45 2.55875 1.45 3C1.45 3.44125 1.80875 3.8 2.25 3.8H14.25ZM1.51669 5.07433L1.45 5.05071V5.12146V15C1.45 15.4412 1.80875 15.8 2.25 15.8H15.75C16.1912 15.8 16.55 15.4412 16.55 15V13.125V13.075H16.5H12.375C10.9552 13.075 9.8 11.9195 9.8 10.5C9.8 9.08053 10.9552 7.925 12.375 7.925H16.5H16.55V7.875V6C16.55 5.55875 16.1912 5.2 15.75 5.2H2.25C1.99286 5.2 1.74618 5.1556 1.51669 5.07433ZM16.5 11.675H16.55V11.625V9.375V9.325H16.5H14.7431H14.6639L14.698 9.39651C14.8577 9.73189 14.95 10.1051 14.95 10.5C14.95 10.8876 14.8617 11.2616 14.6997 11.6036L14.6659 11.675H14.7449H16.5ZM13.21 11.3298L13.2103 11.3295C13.4275 11.1104 13.55 10.8134 13.55 10.5C13.55 9.85221 13.0228 9.325 12.375 9.325C11.7272 9.325 11.2 9.85221 11.2 10.5C11.2 11.1478 11.7272 11.675 12.375 11.675C12.6886 11.675 12.9856 11.5524 13.21 11.3298Z" fill="#311E19" stroke="white" stroke-width="0.1"/>
</svg>
