<svg width="22" height="12" viewBox="0 0 22 12" fill="none" xmlns="http://www.w3.org/2000/svg">
<path d="M5.7603 4.09914C5.5087 3.84737 5.10066 3.84737 4.84889 4.09897L3.38426 5.5636C3.13249 5.81521 3.13249 6.22324 3.38426 6.47501C3.50998 6.6009 3.67497 6.66384 3.83997 6.66384C4.00479 6.66384 4.16978 6.6009 4.29567 6.47501L5.7603 5.01055C6.01207 4.75878 6.01207 4.35074 5.7603 4.09914Z" fill="#311E19"/>
<path d="M6.31345 5.5636L4.84898 7.02823C4.59721 7.27983 4.59721 7.68803 4.84898 7.93964C4.97487 8.06552 5.13969 8.12846 5.30469 8.12846C5.46968 8.12846 5.63467 8.06552 5.76056 7.93964L7.22502 6.47501C7.47662 6.22324 7.47662 5.8152 7.22485 5.5636C6.97308 5.31183 6.56505 5.31183 6.31345 5.5636Z" fill="#311E19"/>
<path d="M17.1515 4.09914C16.8999 3.84737 16.4916 3.84737 16.2399 4.09897L14.7752 5.5636C14.5236 5.81521 14.5236 6.22324 14.7752 6.47501C14.9011 6.6009 15.0661 6.66384 15.2311 6.66384C15.3959 6.66384 15.5609 6.6009 15.6868 6.47501L17.1515 5.01055C17.4031 4.75878 17.4032 4.35074 17.1515 4.09914Z" fill="#311E19"/>
<path d="M17.7043 5.5636L16.2398 7.02823C15.9882 7.27983 15.9882 7.68803 16.2398 7.93964C16.3659 8.06552 16.5307 8.12846 16.6957 8.12846C16.8605 8.12846 17.0255 8.06552 17.1514 7.93964L18.6159 6.47501C18.8675 6.22324 18.8675 5.8152 18.6159 5.5636C18.3641 5.31183 17.9561 5.31183 17.7043 5.5636Z" fill="#311E19"/>
<path d="M22 3.43044C22 3.07443 21.7115 2.7859 21.3555 2.7859H20.8976C19.9268 1.52722 18.4044 0.714844 16.6955 0.714844H5.30446C3.59578 0.714844 2.07324 1.52722 1.10242 2.7859H0.644531C0.288528 2.7859 0 3.07443 0 3.43044C0 3.69614 0.160797 3.92407 0.390411 4.02277C0.138977 4.63943 0 5.31334 0 6.0193C0 8.9442 2.37956 11.3238 5.30446 11.3238C8.22935 11.3238 10.6089 8.9442 10.6089 6.0193V5.1564C10.6089 4.94072 10.7843 4.76532 11 4.76532C11.2157 4.76532 11.3911 4.94072 11.3911 5.1564V6.0193C11.3911 8.9442 13.7706 11.3238 16.6955 11.3238C19.6204 11.3238 22 8.9442 22 6.0193C22 5.31334 21.861 4.63943 21.6096 4.02277C21.8392 3.92407 22 3.69614 22 3.43044ZM9.31985 6.0193C9.31985 8.23337 7.51869 10.0347 5.30446 10.0347C3.09039 10.0347 1.28906 8.23337 1.28906 6.0193C1.28906 3.80524 3.09039 2.00391 5.30446 2.00391H8.02274C8.73793 2.00391 9.31985 2.58583 9.31985 3.30103V6.0193ZM11 3.47626C10.8654 3.47626 10.7345 3.49271 10.6089 3.52275V3.30103C10.6089 2.82854 10.481 2.38559 10.2586 2.00391H11.7414C11.519 2.38559 11.3911 2.82854 11.3911 3.30103V3.52275C11.2655 3.49271 11.1346 3.47626 11 3.47626ZM16.6955 10.0347C14.4815 10.0347 12.6801 8.23337 12.6801 6.0193V3.30103C12.6801 2.58583 13.2621 2.00391 13.9773 2.00391H16.6955C18.9096 2.00391 20.7109 3.80524 20.7109 6.0193C20.7109 8.23337 18.9096 10.0347 16.6955 10.0347Z" fill="#311E19"/>
</svg>
