<svg width="27" height="26" viewBox="0 0 27 26" fill="none" xmlns="http://www.w3.org/2000/svg">
<path d="M9.79931 18.4006C9.64285 18.4425 9.50695 18.5469 9.42607 18.687C9.34471 18.8273 9.32235 18.9976 9.36415 19.1536C9.40608 19.3101 9.51062 19.4464 9.65119 19.5272C9.79134 19.6083 9.9612 19.6306 10.1177 19.5887C10.2741 19.5467 10.4105 19.4423 10.4914 19.3021C10.5723 19.162 10.5946 18.9916 10.5527 18.8352C10.5109 18.6792 10.4064 18.5428 10.2662 18.4619C10.1261 18.381 9.95577 18.3587 9.79931 18.4006Z" fill="#311E19"/>
<path d="M8.64626 20.3978C8.4898 20.4397 8.3539 20.5441 8.27254 20.6843C8.19178 20.8249 8.1693 20.9948 8.21122 21.1513C8.25314 21.3077 8.35769 21.4441 8.49779 21.525C8.63836 21.6057 8.80873 21.6281 8.96473 21.5863C9.12119 21.5444 9.25709 21.44 9.33844 21.2997C9.41933 21.1596 9.44169 20.9893 9.39976 20.8328C9.35784 20.6763 9.25342 20.5404 9.11319 20.4591C8.97308 20.3782 8.80272 20.3558 8.64626 20.3978Z" fill="#311E19"/>
<path d="M22.112 4.43493C21.9552 3.84979 21.5814 3.36177 21.0597 3.06068L18.2063 1.41317C17.1259 0.789242 15.7394 1.16075 15.1157 2.24131L12.5045 6.76375C12.5035 6.76551 12.5026 6.76708 12.5016 6.76885L11.9815 7.66972C11.3996 7.82761 10.9143 8.20032 10.6143 8.71992L8.30788 12.7145C7.99717 13.2529 7.93346 13.8669 8.08132 14.4249L5.11146 19.5691C4.81018 20.0907 4.73054 20.7004 4.88729 21.2854C5.04407 21.8705 5.41784 22.3586 5.9396 22.6598L8.7929 24.3072C9.3147 24.6085 9.92418 24.6881 10.5093 24.5313C11.0943 24.3745 11.5825 24.0009 11.8837 23.479L14.8543 18.3338C15.436 18.1759 15.9215 17.8033 16.2216 17.2835L18.5277 13.289C18.8278 12.7692 18.9079 12.1626 18.7538 11.5797L21.8878 6.15135C22.189 5.62943 22.2687 5.01976 22.112 4.43493ZM15.1941 6.13562C15.8856 5.95035 16.6075 6.04535 17.2274 6.40339C17.8473 6.76112 18.2907 7.33895 18.4759 8.03025C18.6612 8.72171 18.5661 9.44369 18.2082 10.0636L18.0071 10.4119C17.9114 10.3332 17.8088 10.2613 17.6995 10.1982L13.705 7.89178C13.5955 7.82872 13.4821 7.77583 13.366 7.73231L13.5684 7.38201C13.9264 6.76326 14.5036 6.32065 15.1941 6.13562ZM10.8181 22.8638C10.6811 23.1011 10.4584 23.271 10.1909 23.3427C9.92328 23.4144 9.64546 23.3786 9.40822 23.2416L6.55472 21.5941C6.31749 21.4572 6.14752 21.2345 6.07582 20.9669C6.00413 20.6994 6.04014 20.4215 6.17696 20.1843L8.82852 15.5917C8.92361 15.6698 9.02598 15.7418 9.13607 15.8053L10.6007 16.6509L10.5788 16.6888C10.4089 16.9831 10.5097 17.3594 10.804 17.5293C10.951 17.6143 11.1187 17.6314 11.2708 17.5907C11.4228 17.5499 11.5594 17.4513 11.6443 17.304L11.6662 17.2661L13.1308 18.1117C13.2401 18.1748 13.3535 18.2277 13.4696 18.2712L10.8181 22.8638ZM17.4622 12.6737L15.1561 16.6682C15.0191 16.9054 14.7963 17.0756 14.5288 17.1473C14.261 17.219 13.9832 17.183 13.746 17.0462L12.2814 16.2006L12.6547 15.5542L13.8338 16.235C13.981 16.3199 14.1486 16.3372 14.3006 16.2965C14.4527 16.2557 14.5893 16.1569 14.6741 16.0098L16.6512 12.5856C16.7328 12.4443 16.7548 12.2765 16.7126 12.1188C16.6704 11.9613 16.5673 11.8269 16.426 11.7453L13.002 9.76853C12.7078 9.59855 12.3314 9.6994 12.1616 9.99369L10.1845 13.4177C10.103 13.5591 10.0809 13.7269 10.1232 13.8846C10.1654 14.0422 10.2684 14.1766 10.4097 14.2582L11.589 14.9391L11.2159 15.5854L9.75123 14.7398C9.55948 14.629 9.41698 14.4655 9.33081 14.2782C9.32357 14.2586 9.31558 14.2394 9.30641 14.2206C9.19674 13.9388 9.21085 13.6114 9.37343 13.3298L11.6799 9.33505C11.8168 9.09801 12.0394 8.92789 12.307 8.85619C12.5746 8.7845 12.8526 8.82047 13.0898 8.95744L17.0844 11.2637C17.3216 11.4007 17.4918 11.6234 17.5634 11.8909C17.6351 12.1584 17.5992 12.4365 17.4622 12.6737ZM13.0665 13.6103C12.7723 13.4404 12.396 13.5412 12.2262 13.8355L12.2043 13.8734L11.5578 13.5001L12.9195 11.1416L15.278 12.5032L13.9162 14.8617L13.2698 14.4885L13.2917 14.4507C13.4617 14.1565 13.3608 13.7801 13.0665 13.6103ZM20.8223 5.53603L19.6319 7.59776C19.3445 6.63959 18.7128 5.84018 17.8427 5.33769C16.9727 4.83536 15.9643 4.68805 14.9908 4.91821L16.1812 2.85648C16.4658 2.36356 17.0983 2.19409 17.5912 2.47867L20.4445 4.12618C20.6818 4.26315 20.8517 4.48582 20.9234 4.7534C20.9951 5.02082 20.9591 5.29883 20.8223 5.53603Z" fill="#311E19"/>
</svg>
