<svg width="18" height="21" viewBox="0 0 18 21" fill="none" xmlns="http://www.w3.org/2000/svg">
<path d="M14.2402 3.23707H11.5609C11.4532 1.98057 10.3459 0.99 9.00005 0.99C7.65426 0.99 6.54691 1.98057 6.4392 3.23707H3.75991C2.23304 3.23707 0.990031 4.41997 0.990031 5.875V8.65527C0.990031 9.31358 1.3796 9.88631 1.94999 10.1766V17.7959C1.94999 19.2929 3.22892 20.51 4.79987 20.51H13.2002C14.7711 20.51 16.0501 19.2929 16.0501 17.7959V10.1766C16.6205 9.88627 17.01 9.31354 17.01 8.65527V5.875C17.0101 4.41997 15.7671 3.23707 14.2402 3.23707ZM13.2502 17.0241V16.4629C13.2502 15.5119 12.4378 14.739 11.4403 14.739H6.55979C5.56226 14.739 4.74987 15.5119 4.74987 16.4629V17.0241H3.16994V10.3791H5.43052V12.7305C5.43052 13.052 5.70409 13.3118 6.0405 13.3118C6.3769 13.3118 6.65047 13.052 6.65047 12.7305V10.3791H11.3502V12.7305C11.3502 13.052 11.6238 13.3118 11.9602 13.3118C12.2966 13.3118 12.5702 13.052 12.5702 12.7305V10.3791H14.8301V17.0241H13.2502ZM5.96982 17.0241V16.4629C5.96982 16.1539 6.23402 15.9016 6.55979 15.9016H11.4403C11.7661 15.9016 12.0303 16.1539 12.0303 16.4629V17.0241H5.96982ZM9.00005 2.15258C9.67324 2.15258 10.2322 2.62376 10.3337 3.23707H7.66636C7.76786 2.62376 8.3269 2.15258 9.00005 2.15258ZM2.20998 5.875C2.20998 5.06194 2.90481 4.39965 3.75991 4.39965H14.2402C15.0953 4.39965 15.7901 5.06194 15.7901 5.875V8.65527C15.7901 8.9643 15.5259 9.21656 15.2001 9.21656H12.5702V8.08398C12.5702 7.7625 12.2966 7.5027 11.9602 7.5027C11.6238 7.5027 11.3503 7.7625 11.3503 8.08398V9.21656H6.65051V8.08398C6.65051 7.7625 6.37694 7.5027 6.04054 7.5027C5.70414 7.5027 5.43056 7.7625 5.43056 8.08398V9.21656H2.79995C2.47418 9.21656 2.20998 8.9643 2.20998 8.65527V5.875ZM13.2002 19.3474H4.79991C4.04269 19.3474 3.40498 18.8534 3.22258 18.1867H14.7776C14.5952 18.8534 13.9575 19.3474 13.2002 19.3474Z" fill="#311E19" stroke="#311E19" stroke-width="0.02"/>
</svg>
