<svg width="21" height="21" viewBox="0 0 21 21" fill="none" xmlns="http://www.w3.org/2000/svg">
<path fill-rule="evenodd" clip-rule="evenodd" d="M2.20595 0.374462C1.69932 -0.130667 0.883209 -0.125416 0.383118 0.386189C-0.116973 0.897794 -0.111672 1.72202 0.39496 2.22715L8.68653 10.4941L0.383469 18.7726C-0.123162 19.2777 -0.128464 20.1019 0.371626 20.6135C0.871716 21.1251 1.68783 21.1304 2.19446 20.6253L10.5211 12.3233L18.8055 20.583C19.3121 21.0882 20.1282 21.0829 20.6283 20.5713C21.1284 20.0597 21.1231 19.2355 20.6165 18.7304L12.3557 10.4941L20.612 2.26234C21.1186 1.75721 21.1239 0.93298 20.6238 0.421374C20.1237 -0.0902321 19.3076 -0.0954821 18.801 0.409647L10.5211 8.66496L2.20595 0.374462Z" fill="#311E19"/>
</svg>
