<svg width="21" height="18" viewBox="0 0 21 18" fill="none" xmlns="http://www.w3.org/2000/svg">
<path d="M18.875 3.33753H14.9125V2.62501C14.9125 1.67358 14.1389 0.9 13.1875 0.9H8.31249C7.36106 0.9 6.58748 1.67354 6.58748 2.62501V3.33749H2.62501H2.62501C1.67355 3.33753 0.9 4.11107 0.9 5.0625V15.625C0.9 16.5764 1.67354 17.35 2.62501 17.35H18.875C19.8264 17.35 20.6 16.5764 20.6 15.625V5.0625C20.6 4.11107 19.8264 3.33753 18.875 3.33753ZM19.5875 15.525H19.5875V15.625C19.5875 16.0177 19.2677 16.3375 18.875 16.3375H2.62501C2.23235 16.3375 1.91252 16.0177 1.91252 15.625V8.8845C2.82891 9.5941 4.24156 10.0479 5.59318 10.3386C6.97293 10.6353 8.30703 10.7656 9.02635 10.8185C9.06242 11.7383 9.8215 12.475 10.75 12.475C11.6785 12.475 12.4376 11.7383 12.4737 10.8185C13.193 10.7656 14.5271 10.6353 15.9069 10.3386C17.2585 10.0479 18.6711 9.5941 19.5875 8.8845V15.525ZM19.5875 6.99377H19.5875V7.09377C19.5875 7.47383 19.3476 7.82407 18.907 8.14374C18.4676 8.4625 17.8455 8.73773 17.1228 8.96866C15.7112 9.41966 13.9405 9.69403 12.4674 9.8037C12.3988 8.91504 11.6564 8.21252 10.75 8.21252C9.84361 8.21252 9.10127 8.91504 9.03266 9.8037C7.55951 9.69403 5.78881 9.41966 4.37726 8.96866C3.6545 8.73773 3.03241 8.4625 2.59304 8.14374C2.1524 7.82407 1.91256 7.47383 1.91256 7.09377V5.06254C1.91256 4.66988 2.23239 4.35005 2.62505 4.35005H18.875C19.2677 4.35005 19.5875 4.66988 19.5875 5.06254V6.99377ZM7.6 2.62501C7.6 2.23235 7.91983 1.91252 8.31249 1.91252H13.1875C13.5801 1.91252 13.9 2.23235 13.9 2.62501V3.33749H7.6V2.62501ZM10.0375 10.75V9.93753C10.0375 9.54487 10.3573 9.22504 10.75 9.22504C11.1426 9.22504 11.4625 9.54487 11.4625 9.93753V10.75C11.4625 11.1427 11.1426 11.4625 10.75 11.4625C10.3573 11.4625 10.0375 11.1427 10.0375 10.75Z" fill="#311E19" stroke="#311E19" stroke-width="0.2"/>
</svg>
